HIERARCHY
ROOT Hips
{
	OFFSET 50.251900 -13.874416 100.567001
	CHANNELS 6 Xposition Yposition Zposition Xrotation Yrotation Zrotation
	JOINT spine
	{
		OFFSET 0.000000 -0.507026 8.817039
		CHANNELS 3 Xrotation Yrotation Zrotation
		JOINT spine1
		{
			OFFSET 0.000000 -0.000002 10.776604
			CHANNELS 3 Xrotation Yrotation Zrotation
			JOINT spine2
			{
				OFFSET 0.000000 -0.000001 10.325897
				CHANNELS 3 Xrotation Yrotation Zrotation
				JOINT Neck
				{
					OFFSET 0.000000 -1.263955 26.511002
					CHANNELS 3 Xrotation Yrotation Zrotation
					JOINT Head
					{
						OFFSET 0.000000 -0.000001 8.009659
						CHANNELS 3 Xrotation Yrotation Zrotation
						End Site
						{
							OFFSET 0.000000 6.393856 19.387894
						}
					}
				}
				JOINT RightShoulder
				{
					OFFSET -4.347950 0.605420 11.151199
					CHANNELS 3 Xrotation Yrotation Zrotation
					JOINT RightArm
					{
						OFFSET 0.000000 -0.000003 14.625793
						CHANNELS 3 Xrotation Yrotation Zrotation
						JOINT RightArmRoll
						{
							OFFSET 0.000000 -0.000001 7.383408
							CHANNELS 3 Xrotation Yrotation Zrotation
							JOINT RightForeArm
							{
								OFFSET 0.000000 -0.000004 21.505203
								CHANNELS 3 Xrotation Yrotation Zrotation
								JOINT RightForeArmRoll
								{
									OFFSET 0.000000 -0.000001 8.285324
									CHANNELS 3 Xrotation Yrotation Zrotation
									JOINT RightHand
									{
										OFFSET 0.000000 -0.000003 16.626801
										CHANNELS 3 Xrotation Yrotation Zrotation
										End Site
										{
											OFFSET 0.000000 0.000000 0.100006
										}
									}
								}
							}
						}
					}
				}
				JOINT LeftShoulder
				{
					OFFSET 4.347950 0.605420 11.151199
					CHANNELS 3 Xrotation Yrotation Zrotation
					JOINT LeftArm
					{
						OFFSET 0.000000 -0.000003 14.625793
						CHANNELS 3 Xrotation Yrotation Zrotation
						JOINT LeftArmRoll
						{
							OFFSET 0.000000 -0.000001 7.383392
							CHANNELS 3 Xrotation Yrotation Zrotation
							JOINT LeftForeArm
							{
								OFFSET 0.000000 -0.000004 21.505203
								CHANNELS 3 Xrotation Yrotation Zrotation
								JOINT LeftForeArmRoll
								{
									OFFSET 0.000000 -0.000001 8.285309
									CHANNELS 3 Xrotation Yrotation Zrotation
									JOINT LeftHand
									{
										OFFSET 0.000000 -0.000003 16.626801
										CHANNELS 3 Xrotation Yrotation Zrotation
										End Site
										{
											OFFSET 0.000000 0.000000 0.100006
										}
									}
								}
							}
						}
					}
				}
			}
		}
	}
	JOINT RightUpLeg
	{
		OFFSET -7.815102 1.202170 -1.433090
		CHANNELS 3 Xrotation Yrotation Zrotation
		JOINT RightUpLegRoll
		{
			OFFSET 0.000000 -0.000003 19.495895
			CHANNELS 3 Xrotation Yrotation Zrotation
			JOINT RightLeg
			{
				OFFSET 0.000000 0.000004 -24.142700
				CHANNELS 3 Xrotation Yrotation Zrotation
				JOINT RightLegRoll
				{
					OFFSET 0.000000 -0.000004 24.221703
					CHANNELS 3 Xrotation Yrotation Zrotation
					JOINT RightFoot
					{
						OFFSET 0.000000 -0.000004 20.160500
						CHANNELS 3 Xrotation Yrotation Zrotation
						JOINT RightToeBase
						{
							OFFSET 0.000000 -0.000003 16.853195
							CHANNELS 3 Xrotation Yrotation Zrotation
							End Site
							{
								OFFSET 0.007145 0.940779 8.161865
							}
						}
					}
				}
			}
		}
	}
	JOINT LeftUpLeg
	{
		OFFSET 7.815102 1.202170 -1.433090
		CHANNELS 3 Xrotation Yrotation Zrotation
		JOINT LeftUpLegRoll
		{
			OFFSET 0.000000 -0.000003 19.496002
			CHANNELS 3 Xrotation Yrotation Zrotation
			JOINT LeftLeg
			{
				OFFSET 0.000000 -0.000004 24.142593
				CHANNELS 3 Xrotation Yrotation Zrotation
				JOINT LeftLegRoll
				{
					OFFSET 0.000000 -0.000005 24.445602
					CHANNELS 3 Xrotation Yrotation Zrotation
					JOINT LeftFoot
					{
						OFFSET 0.000000 -0.000003 19.936600
						CHANNELS 3 Xrotation Yrotation Zrotation
						JOINT LeftToeBase
						{
							OFFSET 0.000000 -0.000003 16.853195
							CHANNELS 3 Xrotation Yrotation Zrotation
							End Site
							{
								OFFSET -0.032013 0.940779 8.161865
							}
						}
					}
				}
			}
		}
	}
}
MOTION
Frames: 10
Frame Time: 0.041667
51.067406 -13.171224 100.620003 -2.726682 0.322844 3.504355 -2.184120 -0.070706 -0.106958 -0.356953 -0.142782 -0.216813 1.288134 -0.144977 -0.214978 28.808218 0.780144 0.658878 -6.146912 5.557246 0.445512 -8.212625 -69.009725 -10.402528 -49.603207 -112.486795 -37.244257 -0.000000 -0.000007 0.000001 0.124173 -16.499563 -0.105253 0.000007 0.000003 -3.007849 -5.000208 -7.998899 0.000143 -6.386702 59.870781 7.642515 -33.603704 116.941253 28.455743 0.000000 -0.000007 0.000003 3.376492 12.796381 -0.034761 0.000009 -0.000006 2.999999 -5.000211 7.998710 -0.000177 1.973809 -178.491899 -0.461051 -179.999991 0.000005 -1.105994 175.030769 -1.261241 -0.390662 -0.000000 0.000002 0.030803 68.581984 6.908178 2.113167 25.456969 -7.355616 0.000009 0.858232 175.864462 1.507453 -0.000005 -0.000005 -1.121930 -7.818943 2.077541 0.470116 -0.000008 0.000004 -0.137352 70.080958 -6.873785 -2.076535 25.615318 7.355037 -0.229236 
51.068703 -13.164322 100.617996 -2.717065 0.325555 3.506940 -2.186040 -0.070776 -0.107129 -0.361416 -0.143449 -0.217938 1.283663 -0.145674 -0.216107 28.808959 0.785238 0.654074 -6.146728 5.548986 0.441872 -8.188534 -69.001815 -10.375207 -49.541134 -112.465280 -37.139628 0.000001 -0.000007 0.000001 0.122362 -16.465262 -0.103040 0.000006 0.000002 -3.007849 -5.000209 -7.998900 0.000142 -6.373743 59.872707 7.627589 -33.596054 116.938084 28.453496 -0.000000 -0.000007 0.000003 3.387370 12.800338 -0.035195 0.000010 -0.000006 3.000000 -5.000209 7.998711 -0.000176 1.960764 -178.493880 -0.463010 -179.999991 0.000005 -1.105993 175.024390 -1.261229 -0.390803 -0.000000 0.000002 0.030803 68.579983 6.908185 2.113195 25.456971 -7.355616 0.000009 0.842038 175.863451 1.511176 -0.000005 -0.000004 -1.121930 -7.827371 2.074031 0.470431 -0.000008 0.000004 -0.137352 70.084236 -6.873765 -2.076528 25.614616 7.355035 -0.228734 
51.065205 -13.171623 100.620003 -2.707212 0.328328 3.509605 -2.188021 -0.070879 -0.107297 -0.366027 -0.144228 -0.219114 1.279054 -0.146484 -0.217289 28.810097 0.790480 0.649241 -6.146853 5.540690 0.438265 -8.163777 -68.993742 -10.347145 -49.479478 -112.444018 -37.035383 -0.000003 -0.000007 0.000001 0.119664 -16.431067 -0.100949 0.000006 0.000003 -3.007849 -5.000208 -7.998901 0.000142 -6.360426 59.874955 7.612276 -33.587827 116.934751 28.450475 -0.000002 -0.000006 0.000003 3.398438 12.804288 -0.035608 0.000009 -0.000006 3.000000 -5.000209 7.998710 -0.000176 1.947467 -178.495861 -0.465038 -179.999991 0.000005 -1.105994 175.018024 -1.262211 -0.391030 -0.000001 0.000002 0.030803 68.578077 6.908166 2.113210 25.456969 -7.355617 0.000009 0.825546 175.862440 1.515062 -0.000005 -0.000004 -1.121930 -7.835788 2.070373 0.470758 -0.000008 0.000004 -0.137352 70.087412 -6.873746 -2.076627 25.613904 7.355031 -0.228201 
51.055702 -13.183519 100.614998 -2.697214 0.331143 3.512330 -2.190053 -0.071007 -0.107464 -0.370745 -0.145086 -0.220328 1.274333 -0.147372 -0.218507 28.811538 0.795826 0.644375 -6.147181 5.532344 0.434676 -8.138595 -68.985676 -10.318602 -49.415852 -112.423432 -36.929115 -0.000000 -0.000007 0.000001 0.116353 -16.396766 -0.098938 0.000004 0.000003 -3.007849 -5.000209 -7.998898 0.000143 -6.346841 59.877516 7.596696 -33.579614 116.931418 28.447265 -0.000000 -0.000007 0.000003 3.409658 12.808238 -0.036012 0.000008 -0.000007 3.000000 -5.000206 7.998710 -0.000176 1.933998 -178.497855 -0.467116 -179.999991 0.000005 -1.105994 175.011645 -1.262198 -0.391170 -0.000000 0.000002 0.030803 68.576172 6.908145 2.113224 25.456965 -7.355617 0.000009 0.808839 175.860405 1.519058 -0.000005 -0.000004 -1.121930 -7.844196 2.066607 0.471089 -0.000008 0.000004 -0.137352 70.090602 -6.873757 -2.076633 25.613092 7.355034 -0.227637 
51.066902 -13.126219 100.612999 -2.687124 0.333983 3.515084 -2.192112 -0.071148 -0.107632 -0.375523 -0.145988 -0.221562 1.269553 -0.148306 -0.219744 28.813085 0.801230 0.639505 -6.147650 5.523986 0.431102 -8.113178 -68.977520 -10.289778 -49.352304 -112.402941 -36.822906 -0.000000 -0.000007 0.000000 0.112689 -16.362569 -0.096974 0.000005 0.000002 -3.007849 -5.000210 -7.998900 0.000143 -6.333137 59.880289 7.580980 -33.572285 116.927224 28.444987 0.000001 -0.000007 0.000003 3.420965 12.812185 -0.036410 0.000010 -0.000007 3.000000 -5.000209 7.998709 -0.000176 1.920433 -178.499850 -0.469220 -179.999991 0.000005 -1.105994 175.005238 -1.262186 -0.392309 -0.000000 0.000002 0.030803 68.574191 6.908191 2.113157 25.456967 -7.355615 0.000009 0.792015 175.859394 1.523149 -0.000005 -0.000004 -1.121930 -7.852612 2.062782 0.471425 -0.000008 0.000004 -0.137352 70.093778 -6.873770 -2.076639 25.612280 7.355030 -0.227057 
51.064404 -13.136622 100.622002 -2.677019 0.336831 3.517840 -2.194169 -0.071292 -0.107798 -0.380316 -0.146901 -0.222800 1.264764 -0.149252 -0.220988 28.814727 0.806650 0.634625 -6.148132 5.515620 0.427529 -8.087658 -68.969269 -10.260862 -49.288650 -112.382485 -36.716587 -0.000002 -0.000007 -0.000000 0.108935 -16.328375 -0.095018 0.000005 0.000003 -3.007849 -5.000209 -7.998901 0.000142 -6.319375 59.882960 7.565196 -33.563679 116.923782 28.441280 -0.000001 -0.000006 0.000002 3.432290 12.816132 -0.036808 0.000008 -0.000006 3.000000 -5.000214 7.998709 -0.000176 1.906837 -178.501830 -0.471331 -179.999991 0.000005 -1.105993 174.998831 -1.262173 -0.392449 -0.000000 0.000002 0.030803 68.572285 6.908171 2.113172 25.456971 -7.355616 0.000009 0.775160 175.858383 1.527253 -0.000005 -0.000004 -1.121930 -7.861018 2.058936 0.471759 -0.000008 0.000004 -0.137352 70.097063 -6.873750 -2.076632 25.611480 7.355035 -0.226482 
51.064003 -13.171620 100.619995 -2.666947 0.339667 3.520582 -2.196210 -0.071430 -0.107965 -0.385077 -0.147791 -0.224029 1.260004 -0.150173 -0.222221 28.816264 0.812038 0.629752 -6.148561 5.507261 0.423950 -8.062302 -68.961101 -10.232122 -49.224692 -112.361967 -36.609998 -0.000002 -0.000007 0.000001 0.105360 -16.294077 -0.093031 0.000005 0.000001 -3.007849 -5.000211 -7.998901 0.000143 -6.305688 59.885623 7.549495 -33.556357 116.919574 28.439019 0.000001 -0.000006 0.000003 3.443565 12.820078 -0.037210 0.000009 -0.000007 2.999999 -5.000209 7.998709 -0.000177 1.893301 -178.503825 -0.473426 -179.999991 0.000005 -1.105994 174.992452 -1.262161 -0.392590 -0.000001 0.000002 0.030803 68.570373 6.908151 2.113187 25.456964 -7.355616 0.000010 0.758364 175.856361 1.531310 -0.000005 -0.000005 -1.121930 -7.869435 2.055129 0.472092 -0.000008 0.000004 -0.137352 70.100253 -6.873760 -2.076635 25.610679 7.355031 -0.225903 
51.056103 -13.156318 100.619995 -2.656988 0.342474 3.523283 -2.198230 -0.071551 -0.108133 -0.389765 -0.148625 -0.225233 1.255314 -0.151039 -0.223428 28.817610 0.817354 0.624904 -6.148834 5.498938 0.420355 -8.037340 -68.953027 -10.203816 -49.160631 -112.341490 -36.503294 -0.000002 -0.000008 0.000000 0.102231 -16.259875 -0.090979 0.000008 0.000002 -3.007849 -5.000211 -7.998901 0.000142 -6.292180 59.888069 7.533976 -33.548127 116.916241 28.435857 -0.000002 -0.000006 0.000003 3.454747 12.824128 -0.037630 0.000007 -0.000006 3.000000 -5.000210 7.998710 -0.000176 1.879884 -178.505806 -0.475484 -179.999991 0.000005 -1.105994 174.986059 -1.263156 -0.392819 -0.000000 0.000002 0.030803 68.568385 6.908195 2.113120 25.456971 -7.355618 0.000009 0.741721 175.855337 1.535290 -0.000005 -0.000005 -1.121930 -7.877851 2.051392 0.472418 -0.000008 0.000004 -0.137352 70.103436 -6.873770 -2.076541 25.609863 7.355035 -0.225348 
51.051304 -13.173818 100.620995 -2.647217 0.345235 3.525922 -2.200193 -0.071644 -0.108301 -0.394334 -0.149368 -0.226394 1.250744 -0.151813 -0.224595 28.818549 0.822550 0.620078 -6.148873 5.490655 0.416739 -8.012893 -68.945009 -10.176096 -49.098111 -112.320296 -36.398303 -0.000002 -0.000008 0.000001 0.099804 -16.225579 -0.088829 0.000009 0.000003 -3.007850 -5.000211 -7.998899 0.000142 -6.278968 59.890309 7.518787 -33.540091 116.912963 28.433070 0.000000 -0.000007 0.000003 3.465765 12.828077 -0.038061 0.000007 -0.000007 3.000000 -5.000209 7.998708 -0.000176 1.866656 -178.507786 -0.477487 -179.999991 0.000005 -1.105994 174.979679 -1.263143 -0.392959 -0.000001 0.000002 0.030803 68.566486 6.908173 2.113136 25.456969 -7.355616 0.000009 0.725314 175.854326 1.539132 -0.000005 -0.000004 -1.121929 -7.886270 2.047775 0.472733 -0.000008 0.000004 -0.137352 70.106626 -6.873782 -2.076546 25.609159 7.355031 -0.224826 
51.055805 -13.173822 100.623993 -2.637688 0.347930 3.528469 -2.202091 -0.071700 -0.108472 -0.398736 -0.149989 -0.227500 1.246334 -0.152463 -0.225706 28.819092 0.827584 0.615288 -6.148563 5.482413 0.413086 -7.989219 -68.937058 -10.149234 -49.033266 -112.299648 -36.290762 -0.000000 -0.000007 0.000000 0.098356 -16.191278 -0.086544 0.000006 0.000004 -3.007849 -5.000210 -7.998902 0.000143 -6.266136 59.892023 7.503997 -33.532612 116.909848 28.431093 -0.000000 -0.000007 0.000003 3.476560 12.832029 -0.038513 0.000009 -0.000007 3.000000 -5.000208 7.998710 -0.000176 1.853712 -178.509781 -0.479410 -179.999991 0.000005 -1.105994 174.973327 -1.263131 -0.393100 -0.000001 0.000002 0.030803 68.564581 6.908152 2.113251 25.456969 -7.355616 0.000009 0.709242 175.852318 1.542770 -0.000005 -0.000004 -1.121929 -7.894699 2.044326 0.473036 -0.000008 0.000004 -0.137352 70.109897 -6.873762 -2.076539 25.608452 7.355028 -0.224345 
